<?xml version="1.0" encoding="utf-8"?>
<!-- created with bpmn-js / http://bpmn.io -->
<!DOCTYPE svg PUBLIC "-//W3C//DTD SVG 1.1//EN" "http://www.w3.org/Graphics/SVG/1.1/DTD/svg11.dtd">
<svg xmlns="http://www.w3.org/2000/svg" xmlns:xlink="http://www.w3.org/1999/xlink" width="1057" height="737" viewBox="117 76 1057 737" version="1.1"><defs><marker id="association-end-white-black-a2tl791dfa6zznspyukhio26v" viewBox="0 0 20 20" refX="12" refY="10" markerWidth="10" markerHeight="10" orient="auto"><path d="M 1 5 L 11 10 L 1 15" style="fill: none; stroke-width: 1.5px; stroke-linecap: round; stroke-dasharray: 10000, 1; stroke: black;"/></marker><marker id="sequenceflow-end-white-black-a2tl791dfa6zznspyukhio26v" viewBox="0 0 20 20" refX="11" refY="10" markerWidth="10" markerHeight="10" orient="auto"><path d="M 1 5 L 11 10 L 1 15 Z" style="fill: black; stroke-width: 1px; stroke-linecap: round; stroke-dasharray: 10000, 1; stroke: black;"/></marker></defs><g class="djs-group"><g class="djs-element djs-shape" data-element-id="Participant_1vixwgw" transform="translate(123, 82)" style="display: block;"><g class="djs-visual"><rect x="0" y="0" width="1045" height="725" rx="0" ry="0" style="stroke: black; stroke-width: 2px; fill: white; fill-opacity: 0.95;"/><polyline points="30,0 30,725 " style="fill: none; stroke: black; stroke-width: 2px;"/><text style="font-family: Arial, sans-serif; font-size: 12px; font-weight: normal; fill: black;" lineHeight="1.2" class="djs-label" transform="matrix(-1.83697e-16, -1, 1, -1.83697e-16, 0, 725)"><tspan x="299.5" y="11.4">Verificação e Validação</tspan><tspan x="362.5" y="25.799999999999997"/></text></g><rect x="0" y="0" width="1045" height="725" style="fill: none; stroke-opacity: 0; stroke: white; stroke-width: 15px;" class="djs-hit"/><rect x="-6" y="-6" width="1057" height="737" style="fill: none;" class="djs-outline"/></g><g class="djs-children"><g class="djs-group"><g class="djs-element djs-shape" data-element-id="Lane_0t2xd1f" transform="translate(153, 82)" style="display: block;"><g class="djs-visual"><rect x="0" y="0" width="1015" height="142" rx="0" ry="0" style="stroke: black; stroke-width: 2px; fill: white; fill-opacity: 0.35;"/><text style="font-family: Arial, sans-serif; font-size: 12px; font-weight: normal; fill: black;" lineHeight="1.2" class="djs-label" transform="matrix(-1.83697e-16, -1, 1, -1.83697e-16, 0, 142)"><tspan x="34" y="18.6">Stakeholders</tspan></text></g><rect x="0" y="0" width="1015" height="142" style="fill: none; stroke-opacity: 0; stroke: white; stroke-width: 15px;" class="djs-hit"/><rect x="-6" y="-6" width="1027" height="154" style="fill: none;" class="djs-outline"/></g></g><g class="djs-group"><g class="djs-element djs-shape" data-element-id="Lane_12p8ipo" transform="translate(153, 224)" style="display: block;"><g class="djs-visual"><rect x="0" y="0" width="1015" height="583" rx="0" ry="0" style="stroke: black; stroke-width: 2px; fill: white; fill-opacity: 0.35;"/><text style="font-family: Arial, sans-serif; font-size: 12px; font-weight: normal; fill: black;" lineHeight="1.2" class="djs-label" transform="matrix(-1.83697e-16, -1, 1, -1.83697e-16, 0, 583)"><tspan x="256" y="11.4">Scrum Team</tspan><tspan x="291.5" y="25.799999999999997"/></text></g><rect x="0" y="0" width="1015" height="583" style="fill: none; stroke-opacity: 0; stroke: white; stroke-width: 15px;" class="djs-hit"/><rect x="-6" y="-6" width="1027" height="595" style="fill: none;" class="djs-outline"/></g></g><g class="djs-group"><g class="djs-element djs-connection" data-element-id="SequenceFlow_1t807cp" style="display: block;"><g class="djs-visual"><path d="m  237,131L287,131 " style="fill: none; stroke-width: 2px; stroke: black; stroke-linejoin: round; marker-end: url('#sequenceflow-end-white-black-a2tl791dfa6zznspyukhio26v');"/></g><polyline points="237,131 287,131 " style="fill: none; stroke-opacity: 0; stroke: white; stroke-width: 15px;" class="djs-hit"/><rect x="231" y="125" width="62" height="12" style="fill: none;" class="djs-outline"/></g></g><g class="djs-group"><g class="djs-element djs-connection" data-element-id="SequenceFlow_0utebg5" style="display: block;"><g class="djs-visual"><path d="m  337,171L337,265 " style="fill: none; stroke-width: 2px; stroke: black; stroke-linejoin: round; marker-end: url('#sequenceflow-end-white-black-a2tl791dfa6zznspyukhio26v');"/></g><polyline points="337,171 337,265 " style="fill: none; stroke-opacity: 0; stroke: white; stroke-width: 15px;" class="djs-hit"/><rect x="331" y="165" width="12" height="106" style="fill: none;" class="djs-outline"/></g></g><g class="djs-group"><g class="djs-element djs-connection" data-element-id="SequenceFlow_04u2tgl" style="display: block;"><g class="djs-visual"><path d="m  387,305L437,305 " style="fill: none; stroke-width: 2px; stroke: black; stroke-linejoin: round; marker-end: url('#sequenceflow-end-white-black-a2tl791dfa6zznspyukhio26v');"/></g><polyline points="387,305 437,305 " style="fill: none; stroke-opacity: 0; stroke: white; stroke-width: 15px;" class="djs-hit"/><rect x="381" y="299" width="62" height="12" style="fill: none;" class="djs-outline"/></g></g><g class="djs-group"><g class="djs-element djs-connection" data-element-id="SequenceFlow_1xd5qij" style="display: block;"><g class="djs-visual"><path d="m  462,330L462,422 " style="fill: none; stroke-width: 2px; stroke: black; stroke-linejoin: round; marker-end: url('#sequenceflow-end-white-black-a2tl791dfa6zznspyukhio26v');"/></g><polyline points="462,330 462,422 " style="fill: none; stroke-opacity: 0; stroke: white; stroke-width: 15px;" class="djs-hit"/><rect x="456" y="324" width="12" height="104" style="fill: none;" class="djs-outline"/></g></g><g class="djs-group"><g class="djs-element djs-connection" data-element-id="SequenceFlow_01ti1qu" style="display: block;"><g class="djs-visual"><path d="m  735,599L828,599 " style="fill: none; stroke-width: 2px; stroke: black; stroke-linejoin: round; marker-end: url('#sequenceflow-end-white-black-a2tl791dfa6zznspyukhio26v');"/></g><polyline points="735,599 828,599 " style="fill: none; stroke-opacity: 0; stroke: white; stroke-width: 15px;" class="djs-hit"/><rect x="729" y="593" width="105" height="12" style="fill: none;" class="djs-outline"/></g></g><g class="djs-group"><g class="djs-element djs-connection" data-element-id="SequenceFlow_17vsbhf" style="display: block;"><g class="djs-visual"><path d="m  853,574L853,171 " style="fill: none; stroke-width: 2px; stroke: black; stroke-linejoin: round; marker-end: url('#sequenceflow-end-white-black-a2tl791dfa6zznspyukhio26v');"/></g><polyline points="853,574 853,171 " style="fill: none; stroke-opacity: 0; stroke: white; stroke-width: 15px;" class="djs-hit"/><rect x="847" y="165" width="12" height="415" style="fill: none;" class="djs-outline"/></g></g><g class="djs-group"><g class="djs-element djs-connection" data-element-id="SequenceFlow_1k5i5yr" style="display: block;"><g class="djs-visual"><path d="m  903,131L965,131 " style="fill: none; stroke-width: 2px; stroke: black; stroke-linejoin: round; marker-end: url('#sequenceflow-end-white-black-a2tl791dfa6zznspyukhio26v');"/></g><polyline points="903,131 965,131 " style="fill: none; stroke-opacity: 0; stroke: white; stroke-width: 15px;" class="djs-hit"/><rect x="897" y="125" width="74" height="12" style="fill: none;" class="djs-outline"/></g></g><g class="djs-group"><g class="djs-element djs-shape" data-element-id="StartEvent_1" transform="translate(201, 113)" style="display: block;"><g class="djs-visual"><circle cx="18" cy="18" r="18" style="stroke: black; stroke-width: 1px; fill: white; fill-opacity: 0.95;"/><circle cx="18" cy="18" r="15" style="stroke: black; stroke-width: 1px; fill: none;"/></g><rect x="0" y="0" width="36" height="36" style="fill: none; stroke-opacity: 0; stroke: white; stroke-width: 15px;" class="djs-hit"/><rect x="-6" y="-6" width="48" height="48" style="fill: none;" class="djs-outline"/></g></g><g class="djs-group"><g class="djs-element djs-shape" data-element-id="Task_1pljxtq" transform="translate(287, 91)" style="display: block;"><g class="djs-visual"><rect x="0" y="0" width="100" height="80" rx="10" ry="10" style="stroke: black; stroke-width: 2px; fill: white; fill-opacity: 0.95;"/><text style="font-family: Arial, sans-serif; font-size: 12px; font-weight: normal; fill: black;" lineHeight="1.2" class="djs-label"><tspan x="17.5" y="29.200000000000003">Reunião de </tspan><tspan x="25.000001907348633" y="43.6">iniciação</tspan><tspan x="50" y="58"/></text></g><rect x="0" y="0" width="100" height="80" style="fill: none; stroke-opacity: 0; stroke: white; stroke-width: 15px;" class="djs-hit"/><rect x="-6" y="-6" width="112" height="92" style="fill: none;" class="djs-outline"/></g></g><g class="djs-group"><g class="djs-element djs-shape" data-element-id="DataObjectReference_19scnw7" transform="translate(430, 106)" style="display: block;"><g class="djs-visual"><path d="m 0,0 28.23529411764706,0 7.058823529411765,8.196721311475411 0,40.98360655737705 -35.294117647058826,0 0,-49.18032786885246 28.23529411764706,0 0,8.196721311475411 7.058823529411765,0" style="fill: white; stroke-width: 2px; stroke: black; fill-opacity: 0.95;"/></g><rect x="0" y="0" width="36" height="50" style="fill: none; stroke-opacity: 0; stroke: white; stroke-width: 15px;" class="djs-hit"/><rect x="-6" y="-6" width="48" height="62" style="fill: none;" class="djs-outline"/></g></g><g class="djs-group"><g class="djs-element djs-shape" data-element-id="DataObjectReference_19scnw7_label" transform="translate(411, 163)" style="display: block;"><g class="djs-visual"><text style="font-family: Arial, sans-serif; font-size: 11px; font-weight: normal; fill: black;" lineHeight="1.2" class="djs-label"><tspan x="1" y="9.899999999999999">Sprint Backlog, </tspan><tspan x="0" y="23.099999999999998">Ata de Reunião</tspan></text></g><rect x="0" y="0" width="75" height="27" style="fill: none; stroke-opacity: 0; stroke: white; stroke-width: 15px;" class="djs-hit"/><rect x="-6" y="-6" width="87" height="39" style="fill: none;" class="djs-outline"/></g></g><g class="djs-group"><g class="djs-element djs-shape" data-element-id="Task_1tvkk1e" transform="translate(287, 265)" style="display: block;"><g class="djs-visual"><rect x="0" y="0" width="100" height="80" rx="10" ry="10" style="stroke: black; stroke-width: 2px; fill: white; fill-opacity: 0.95;"/><text style="font-family: Arial, sans-serif; font-size: 12px; font-weight: normal; fill: black;" lineHeight="1.2" class="djs-label"><tspan x="8.5" y="36.4">Ciclo de testes</tspan><tspan x="50" y="50.8"/></text></g><rect x="0" y="0" width="100" height="80" style="fill: none; stroke-opacity: 0; stroke: white; stroke-width: 15px;" class="djs-hit"/><rect x="-6" y="-6" width="112" height="92" style="fill: none;" class="djs-outline"/></g></g><g class="djs-group"><g class="djs-element djs-shape" data-element-id="ExclusiveGateway_17bfnwn" transform="translate(437, 280)" style="display: block;"><g class="djs-visual"><polygon points="25,0 50,25 25,50 0,25" style="stroke: black; stroke-width: 2px; fill: white; fill-opacity: 0.95;"/><path d="m 23,10 0,12.5 -12.5,0 0,5 12.5,0 0,12.5 5,0 0,-12.5 12.5,0 0,-5 -12.5,0 0,-12.5 -5,0 z" style="fill: black; stroke-width: 1px; stroke: black;"/></g><rect x="0" y="0" width="50" height="50" style="fill: none; stroke-opacity: 0; stroke: white; stroke-width: 15px;" class="djs-hit"/><rect x="-6" y="-6" width="62" height="62" style="fill: none;" class="djs-outline"/></g></g><g class="djs-group"><g class="djs-element djs-shape hover selected" data-element-id="ExclusiveGateway_0h9ea9d" transform="translate(828, 574)" style="display: block;"><g class="djs-visual"><polygon points="25,0 50,25 25,50 0,25" style="stroke: black; stroke-width: 2px; fill: white; fill-opacity: 0.95;"/><circle cx="25" cy="25" r="13" style="stroke: black; stroke-width: 2.5px; fill: white;"/></g><rect x="0" y="0" width="50" height="50" style="fill: none; stroke-opacity: 0; stroke: white; stroke-width: 15px;" class="djs-hit"/><rect x="-6" y="-6" width="62" height="62" style="fill: none;" class="djs-outline"/></g></g><g class="djs-group"><g class="djs-element djs-shape" data-element-id="Task_00rqdx5" transform="translate(803, 91)" style="display: block;"><g class="djs-visual"><rect x="0" y="0" width="100" height="80" rx="10" ry="10" style="stroke: black; stroke-width: 2px; fill: white; fill-opacity: 0.95;"/><text style="font-family: Arial, sans-serif; font-size: 12px; font-weight: normal; fill: black;" lineHeight="1.2" class="djs-label"><tspan x="17.5" y="22">Reunião de </tspan><tspan x="29.5" y="36.4">revisão </tspan><tspan x="20.000001907348633" y="50.8">(transição)</tspan><tspan x="50" y="65.19999999999999"/></text></g><rect x="0" y="0" width="100" height="80" style="fill: none; stroke-opacity: 0; stroke: white; stroke-width: 15px;" class="djs-hit"/><rect x="-6" y="-6" width="112" height="92" style="fill: none;" class="djs-outline"/></g></g><g class="djs-group"><g class="djs-element djs-shape" data-element-id="DataObjectReference_1d3j94g" transform="translate(691, 106)" style="display: block;"><g class="djs-visual"><path d="m 0,0 28.23529411764706,0 7.058823529411765,8.196721311475411 0,40.98360655737705 -35.294117647058826,0 0,-49.18032786885246 28.23529411764706,0 0,8.196721311475411 7.058823529411765,0" style="fill: white; stroke-width: 2px; stroke: black; fill-opacity: 0.95;"/></g><rect x="0" y="0" width="36" height="50" style="fill: none; stroke-opacity: 0; stroke: white; stroke-width: 15px;" class="djs-hit"/><rect x="-6" y="-6" width="48" height="62" style="fill: none;" class="djs-outline"/></g></g><g class="djs-group"><g class="djs-element djs-shape" data-element-id="IntermediateThrowEvent_0x8hjur" transform="translate(965, 113)" style="display: block;"><g class="djs-visual"><circle cx="18" cy="18" r="18" style="stroke: black; stroke-width: 1px; fill: white; fill-opacity: 0.95;"/><circle cx="18" cy="18" r="15" style="stroke: black; stroke-width: 1px; fill: none;"/></g><rect x="0" y="0" width="36" height="36" style="fill: none; stroke-opacity: 0; stroke: white; stroke-width: 15px;" class="djs-hit"/><rect x="-6" y="-6" width="48" height="48" style="fill: none;" class="djs-outline"/></g></g><g class="djs-group"><g class="djs-element djs-shape" data-element-id="Task_02bugc2" transform="translate(189, 422)" style="display: block;"><g class="djs-visual"><rect x="0" y="0" width="546" height="354" rx="10" ry="10" style="stroke: black; stroke-width: 2px; fill: white; fill-opacity: 0.95;"/><text style="font-family: Arial, sans-serif; font-size: 12px; font-weight: normal; fill: black;" lineHeight="1.2" class="djs-label"><tspan x="273" y="15.799999999999999"/></text></g><rect x="0" y="0" width="546" height="354" style="fill: none; stroke-opacity: 0; stroke: white; stroke-width: 15px;" class="djs-hit"/><rect x="-6" y="-6" width="558" height="366" style="fill: none;" class="djs-outline"/></g><g class="djs-children"><g class="djs-group"><g class="djs-element djs-shape" data-element-id="DataObjectReference_13vl9id" transform="translate(432, 564)" style="display: block;"><g class="djs-visual"><path d="m 0,0 28.23529411764706,0 7.058823529411765,8.196721311475411 0,40.98360655737705 -35.294117647058826,0 0,-49.18032786885246 28.23529411764706,0 0,8.196721311475411 7.058823529411765,0" style="fill: white; stroke-width: 2px; stroke: black; fill-opacity: 0.95;"/></g><rect x="0" y="0" width="36" height="50" style="fill: none; stroke-opacity: 0; stroke: white; stroke-width: 15px;" class="djs-hit"/><rect x="-6" y="-6" width="48" height="62" style="fill: none;" class="djs-outline"/></g></g><g class="djs-group"><g class="djs-element djs-shape" data-element-id="Task_1fhmc3p" transform="translate(209, 446)" style="display: block;"><g class="djs-visual"><rect x="0" y="0" width="100" height="80" rx="10" ry="10" style="stroke: black; stroke-width: 2px; fill: white; fill-opacity: 0.95;"/><text style="font-family: Arial, sans-serif; font-size: 12px; font-weight: normal; fill: black;" lineHeight="1.2" class="djs-label"><tspan x="26" y="36.4">Teste de </tspan><tspan x="23" y="50.8">Aceitação</tspan></text><rect x="0" y="0" width="14" height="14" rx="0" ry="0" style="stroke: black; stroke-width: 1px; fill: white;" transform="translate(42.5, 60)"/><path d="m42.5,60 m 7,2 l 0,10 m -5,-5 l 10,0" style="fill: white; stroke-width: 2px; stroke: black;" data-marker="sub-process"/></g><rect x="0" y="0" width="100" height="80" style="fill: none; stroke-opacity: 0; stroke: white; stroke-width: 15px;" class="djs-hit"/><rect x="-6" y="-6" width="112" height="92" style="fill: none;" class="djs-outline"/></g></g><g class="djs-group"><g class="djs-element djs-shape" data-element-id="DataObjectReference_13vl9id_label" transform="translate(406, 622)" style="display: block;"><g class="djs-visual"><text style="font-family: Arial, sans-serif; font-size: 11px; font-weight: normal; fill: black;" lineHeight="1.2" class="djs-label"><tspan x="8.5" y="9.899999999999999">Caso de teste, </tspan><tspan x="3.5" y="23.099999999999998">Procedimento de </tspan><tspan x="30" y="36.3">teste, </tspan><tspan x="6" y="49.5">Componente de </tspan><tspan x="4" y="62.7">teste, Modelo de </tspan><tspan x="8" y="75.9">teste, Plano de </tspan><tspan x="0" y="89.10000000000001">teste, Relatório de</tspan><tspan x="4" y="102.30000000000001">testes, Defeito e </tspan><tspan x="12" y="115.50000000000001">Avaliação de </tspan><tspan x="31.5" y="128.70000000000002">teste</tspan></text></g><rect x="0" y="0" width="88" height="132" style="fill: none; stroke-opacity: 0; stroke: white; stroke-width: 15px;" class="djs-hit"/><rect x="-6" y="-6" width="100" height="144" style="fill: none;" class="djs-outline"/></g></g><g class="djs-group"><g class="djs-element djs-shape" data-element-id="Task_0bzek8w" transform="translate(400, 446)" style="display: block;"><g class="djs-visual"><rect x="0" y="0" width="100" height="80" rx="10" ry="10" style="stroke: black; stroke-width: 2px; fill: white; fill-opacity: 0.95;"/><text style="font-family: Arial, sans-serif; font-size: 12px; font-weight: normal; fill: black;" lineHeight="1.2" class="djs-label"><tspan x="26" y="36.4">Teste de </tspan><tspan x="26.5" y="50.8">Sistema</tspan></text><rect x="0" y="0" width="14" height="14" rx="0" ry="0" style="stroke: black; stroke-width: 1px; fill: white;" transform="translate(42.5, 60)"/><path d="m42.5,60 m 7,2 l 0,10 m -5,-5 l 10,0" style="fill: white; stroke-width: 2px; stroke: black;" data-marker="sub-process"/></g><rect x="0" y="0" width="100" height="80" style="fill: none; stroke-opacity: 0; stroke: white; stroke-width: 15px;" class="djs-hit"/><rect x="-6" y="-6" width="112" height="92" style="fill: none;" class="djs-outline"/></g><g class="djs-children"/></g><g class="djs-group"><g class="djs-element djs-shape" data-element-id="Task_0jrepww" transform="translate(571, 446)" style="display: block;"><g class="djs-visual"><rect x="0" y="0" width="100" height="80" rx="10" ry="10" style="stroke: black; stroke-width: 2px; fill: white; fill-opacity: 0.95;"/><text style="font-family: Arial, sans-serif; font-size: 12px; font-weight: normal; fill: black;" lineHeight="1.2" class="djs-label"><tspan x="26" y="36.4">Teste de </tspan><tspan x="10" y="50.8">Componentes</tspan></text><rect x="0" y="0" width="14" height="14" rx="0" ry="0" style="stroke: black; stroke-width: 1px; fill: white;" transform="translate(42.5, 60)"/><path d="m42.5,60 m 7,2 l 0,10 m -5,-5 l 10,0" style="fill: white; stroke-width: 2px; stroke: black;" data-marker="sub-process"/></g><rect x="0" y="0" width="100" height="80" style="fill: none; stroke-opacity: 0; stroke: white; stroke-width: 15px;" class="djs-hit"/><rect x="-6" y="-6" width="112" height="92" style="fill: none;" class="djs-outline"/></g></g></g></g><g class="djs-group"><g class="djs-element djs-shape" data-element-id="DataObjectReference_1d3j94g_label" transform="translate(666, 163)" style="display: block;"><g class="djs-visual"><text style="font-family: Arial, sans-serif; font-size: 11px; font-weight: normal; fill: black;" lineHeight="1.2" class="djs-label"><tspan x="26.5" y="9.899999999999999">Ata da </tspan><tspan x="0" y="23.099999999999998">reunião,Software </tspan><tspan x="7.5" y="36.3">Final e testado</tspan></text></g><rect x="0" y="0" width="86" height="40" style="fill: none; stroke-opacity: 0; stroke: white; stroke-width: 15px;" class="djs-hit"/><rect x="-6" y="-6" width="98" height="52" style="fill: none;" class="djs-outline"/></g></g><g class="djs-group"><g class="djs-element djs-shape" data-element-id="ExclusiveGateway_0h9ea9d_label" transform="translate(814, 631)" style="display: block;"><g class="djs-visual"><text style="font-family: Arial, sans-serif; font-size: 11px; font-weight: normal; fill: black;" lineHeight="1.2" class="djs-label"><tspan x="0" y="9.899999999999999">Todos Artefatos </tspan><tspan x="15.5" y="23.099999999999998">de Testes </tspan><tspan x="13" y="36.3">concluídos</tspan><tspan x="39.5" y="49.5"/></text></g><rect x="0" y="0" width="79" height="53" style="fill: none; stroke-opacity: 0; stroke: white; stroke-width: 15px;" class="djs-hit"/><rect x="-6" y="-6" width="91" height="65" style="fill: none;" class="djs-outline"/></g></g></g></g><g class="djs-group"><g class="djs-element djs-connection" data-element-id="DataOutputAssociation_1e8t1w7" style="display: block;"><g class="djs-visual"><polyline points="387,131 430,131 " style="fill: none; stroke: black; stroke-width: 2px; stroke-dasharray: 0.5, 5; stroke-linecap: round; stroke-linejoin: round; marker-end: url('#association-end-white-black-a2tl791dfa6zznspyukhio26v');"/></g><polyline points="387,131 430,131 " style="fill: none; stroke-opacity: 0; stroke: white; stroke-width: 15px;" class="djs-hit"/><rect x="381" y="125" width="55" height="12" style="fill: none;" class="djs-outline"/></g></g><g class="djs-group"><g class="djs-element djs-connection" data-element-id="DataOutputAssociation_1jjbdjr" style="display: block;"><g class="djs-visual"><polyline points="571,516 468,578 " style="fill: none; stroke: black; stroke-width: 2px; stroke-dasharray: 0.5, 5; stroke-linecap: round; stroke-linejoin: round; marker-end: url('#association-end-white-black-a2tl791dfa6zznspyukhio26v');"/></g><polyline points="571,516 468,578 " style="fill: none; stroke-opacity: 0; stroke: white; stroke-width: 15px;" class="djs-hit"/><rect x="462" y="510" width="115" height="74" style="fill: none;" class="djs-outline"/></g></g><g class="djs-group"><g class="djs-element djs-connection" data-element-id="DataOutputAssociation_1fgps35" style="display: block;"><g class="djs-visual"><polyline points="450,526 450,564 " style="fill: none; stroke: black; stroke-width: 2px; stroke-dasharray: 0.5, 5; stroke-linecap: round; stroke-linejoin: round; marker-end: url('#association-end-white-black-a2tl791dfa6zznspyukhio26v');"/></g><polyline points="450,526 450,564 " style="fill: none; stroke-opacity: 0; stroke: white; stroke-width: 15px;" class="djs-hit"/><rect x="444" y="520" width="12" height="50" style="fill: none;" class="djs-outline"/></g></g><g class="djs-group"><g class="djs-element djs-connection" data-element-id="DataOutputAssociation_0zf0iqt" style="display: block;"><g class="djs-visual"><polyline points="309,513 432,579 " style="fill: none; stroke: black; stroke-width: 2px; stroke-dasharray: 0.5, 5; stroke-linecap: round; stroke-linejoin: round; marker-end: url('#association-end-white-black-a2tl791dfa6zznspyukhio26v');"/></g><polyline points="309,513 432,579 " style="fill: none; stroke-opacity: 0; stroke: white; stroke-width: 15px;" class="djs-hit"/><rect x="303" y="507" width="135" height="78" style="fill: none;" class="djs-outline"/></g></g><g class="djs-group"><g class="djs-element djs-connection" data-element-id="DataOutputAssociation_1i5lyb4" style="display: block;"><g class="djs-visual"><polyline points="803,131 727,131 " style="fill: none; stroke: black; stroke-width: 2px; stroke-dasharray: 0.5, 5; stroke-linecap: round; stroke-linejoin: round; marker-end: url('#association-end-white-black-a2tl791dfa6zznspyukhio26v');"/></g><polyline points="803,131 727,131 " style="fill: none; stroke-opacity: 0; stroke: white; stroke-width: 15px;" class="djs-hit"/><rect x="721" y="125" width="88" height="12" style="fill: none;" class="djs-outline"/></g></g><g style="pointer-events: none;" class="djs-drag-group" transform="translate(-50, -471)"/><g style="pointer-events: none;" class="djs-drag-group" transform="translate(-127)"/><g style="pointer-events: none;" class="djs-drag-group" transform="translate(19)"/><g style="pointer-events: none;" class="djs-drag-group" transform="translate(-285, -588)"/><g style="pointer-events: none;" class="djs-drag-group" transform="translate(-24, 15)"/><g style="pointer-events: none;" class="djs-drag-group" transform="translate(-119, -471)"/><g style="pointer-events: none;" class="djs-drag-group" transform="translate(-32, 25)"/><g style="pointer-events: none;" class="djs-drag-group" transform="translate(104, -111)"/><g style="pointer-events: none;" class="djs-drag-group" transform="translate(1, 9)"/><g style="pointer-events: none;" class="djs-drag-group" transform="translate(-150, 198)"/><g style="pointer-events: none;" class="djs-drag-group" transform="translate(-6)"/><g style="pointer-events: none;" class="djs-drag-group" transform="translate(6)"/><g style="pointer-events: none;" class="djs-drag-group" transform="translate(0, 56)"/><g style="pointer-events: none;" class="djs-drag-group" transform="translate(0, 34)"/><g style="pointer-events: none;" class="djs-drag-group" transform="translate(1, 15)"/><g style="pointer-events: none;" class="djs-drag-group" transform="translate(4, 88)"/><g style="pointer-events: none;" class="djs-drag-group" transform="translate(0, 84)"/><g style="pointer-events: none;" class="djs-drag-group" transform="translate(12, 42)"/><g style="pointer-events: none;" class="djs-drag-group" transform="translate(0, 69)"/><g style="pointer-events: none;" class="djs-drag-group" transform="translate(0, 55)"/><g style="pointer-events: none;" class="djs-drag-group" transform="translate(93, -69)"/><g style="pointer-events: none;" class="djs-drag-group" transform="translate(-40, -14)"/><g style="pointer-events: none;" class="djs-drag-group" transform="translate(138, 9)"/><g style="pointer-events: none;" class="djs-drag-group" transform="translate(0, -21)"/><g style="pointer-events: none;" class="djs-drag-group" transform="translate(-111, -20)"/><g style="pointer-events: none;" class="djs-drag-group" transform="translate(0, 31)"/><g style="pointer-events: none;" class="djs-drag-group" transform="translate(12, 13)"/><g style="pointer-events: none;" class="djs-drag-group" transform="translate(0, 57)"/><g style="pointer-events: none;" class="djs-drag-group" transform="translate(0, -5)"/><g style="pointer-events: none;" class="djs-drag-group" transform="translate(0, -15)"/><g style="pointer-events: none;" class="djs-drag-group" transform="translate(-71, 13)"/><g style="pointer-events: none;" class="djs-drag-group" transform="translate(12, -159)"/><g style="pointer-events: none;" class="djs-drag-group" transform="translate(-12, -14)"/><g style="pointer-events: none;" class="djs-drag-group" transform="translate(0, -18)"/><g style="pointer-events: none;" class="djs-drag-group" transform="translate(0, -8)"/><g style="pointer-events: none;" class="djs-drag-group" transform="translate(0, -131)"/><g style="pointer-events: none;" class="djs-drag-group" transform="translate(0, -9)"/><g style="pointer-events: none;" class="djs-drag-group" transform="translate(0, 136)"/><g style="pointer-events: none;" class="djs-drag-group" transform="translate(0, 70)"/><g style="pointer-events: none;" class="djs-drag-group" transform="translate(0)"/><g style="pointer-events: none;" class="djs-drag-group" transform="translate(0, 11)"/><g style="pointer-events: none;" class="djs-drag-group" transform="translate(9, 60)"/><g style="pointer-events: none;" class="djs-drag-group" transform="translate(-9, -9)"/><g style="pointer-events: none;" class="djs-drag-group" transform="translate(0, -9)"/><g style="pointer-events: none;" class="djs-drag-group" transform="translate(0, 53)"/><g style="pointer-events: none;" class="djs-drag-group" transform="translate(0, 53)"/><g style="pointer-events: none;" class="djs-drag-group" transform="translate(0, -18)"/><g style="pointer-events: none;" class="djs-drag-group" transform="translate(0, 7)"/><g style="pointer-events: none;" class="djs-drag-group" transform="translate(0, 12)"/><g style="pointer-events: none;" class="djs-drag-group" transform="translate(0, 20)"/><g style="pointer-events: none;" class="djs-drag-group" transform="translate(0, 15)"/><g style="pointer-events: none;" class="djs-drag-group" transform="translate(0, 15)"/><g style="pointer-events: none;" class="djs-drag-group" transform="translate(0, -8)"/><g style="pointer-events: none;" class="djs-drag-group" transform="translate(-1, -37)"/><g style="pointer-events: none;" class="djs-drag-group" transform="translate(33, 416)"/><g style="pointer-events: none;" class="djs-drag-group" transform="translate(13)"/><g style="pointer-events: none;" class="djs-drag-group" transform="translate(-87)"/><g style="pointer-events: none;" class="djs-drag-group" transform="translate(1)"/><g style="pointer-events: none;" class="djs-drag-group" transform="translate(0, -20)"/><g style="pointer-events: none;" class="djs-drag-group" transform="translate(-16, -591)"/><g style="pointer-events: none;" class="djs-drag-group" transform="translate(-5, -23)"/><g style="pointer-events: none;" class="djs-drag-group" transform="translate(0, 22)"/><g style="pointer-events: none;" class="djs-drag-group" transform="translate(0, 30)"/><g style="pointer-events: none;" class="djs-drag-group" transform="translate(-72, 55)"/><g style="pointer-events: none;" class="djs-drag-group" transform="translate(0, -33)"/><g style="pointer-events: none;" class="djs-drag-group" transform="translate(0, -22)"/><g style="pointer-events: none;" class="djs-drag-group" transform="translate(0)"/><g style="pointer-events: none;" class="djs-drag-group" transform="translate(20, 16)"/><g style="pointer-events: none;" class="djs-drag-group" transform="translate(12, -2)"/><g style="pointer-events: none;" class="djs-drag-group" transform="translate(-2, 10)"/><g style="pointer-events: none;" class="djs-drag-group" transform="translate(-2, -13)"/><g style="pointer-events: none;" class="djs-drag-group" transform="translate(0, -12)"/><g style="pointer-events: none;" class="djs-drag-group" transform="translate(111, -95)"/><g style="pointer-events: none;" class="djs-drag-group" transform="translate(-150, 64)"/><g style="pointer-events: none;" class="djs-drag-group" transform="translate(8, 184)"/><g style="pointer-events: none;" class="djs-drag-group" transform="translate(133, 141)"/><g style="pointer-events: none;" class="djs-drag-group" transform="translate(61, -132)"/><g style="pointer-events: none;" class="djs-drag-group" transform="translate(38, -2)"/><g style="pointer-events: none;" class="djs-drag-group" transform="translate(-19, -10)"/><g style="pointer-events: none;" class="djs-drag-group" transform="translate(-6)"/><g style="pointer-events: none;" class="djs-drag-group" transform="translate(4, 93)"/><g style="pointer-events: none;" class="djs-drag-group" transform="translate(1, 17)"/><g style="pointer-events: none;" class="djs-drag-group" transform="translate(0, 140)"/><g style="pointer-events: none;" class="djs-drag-group" transform="translate(0, 110)"/><g style="pointer-events: none;" class="djs-drag-group" transform="translate(-157, -133)"/><g style="pointer-events: none;" class="djs-drag-group" transform="translate(88, 38)"/><g style="pointer-events: none;" class="djs-drag-group" transform="translate(0, -95)"/><g style="pointer-events: none;" class="djs-drag-group" transform="translate(18, 86)"/><g style="pointer-events: none;" class="djs-drag-group" transform="translate(0, 57)"/><g style="pointer-events: none;" class="djs-drag-group" transform="translate(12, -29)"/><g style="pointer-events: none;" class="djs-drag-group" transform="translate(56, 64)"/><g style="pointer-events: none;" class="djs-drag-group" transform="translate(1, 40)"/><g style="pointer-events: none;" class="djs-drag-group" transform="translate(14)"/><g style="pointer-events: none;" class="djs-drag-group" transform="translate(8, 78)"/><g style="pointer-events: none;" class="djs-drag-group" transform="translate(0, 10)"/><g style="pointer-events: none;" class="djs-drag-group" transform="translate(-13)"/><g style="pointer-events: none;" class="djs-drag-group" transform="translate(-36)"/><g style="pointer-events: none;" class="djs-drag-group" transform="translate(-376, -78)"/><g style="pointer-events: none;" class="djs-drag-group" transform="translate(250, 87)"/><g style="pointer-events: none;" class="djs-drag-group" transform="translate(88, -197)"/><g style="pointer-events: none;" class="djs-drag-group" transform="translate(23, 110)"/><g style="pointer-events: none;" class="djs-drag-group" transform="translate(28, 143)"/><g style="pointer-events: none;" class="djs-drag-group" transform="translate(0, 95)"/><g style="pointer-events: none;" class="djs-drag-group" transform="translate(-90, 169)"/><g style="pointer-events: none;" class="djs-drag-group" transform="translate(74, 356)"/><g style="pointer-events: none;" class="djs-drag-group" transform="translate(-23, 609)"/><g style="pointer-events: none;" class="djs-drag-group" transform="translate(-16, -365)"/><g style="pointer-events: none;" class="djs-drag-group" transform="translate(-45, -59)"/><g style="pointer-events: none;" class="djs-drag-group" transform="translate(-45, 345)"/><g style="pointer-events: none;" class="djs-drag-group" transform="translate(-80, -303)"/><g style="pointer-events: none;" class="djs-drag-group" transform="translate(27, -9)"/><g style="pointer-events: none;" class="djs-drag-group" transform="translate(-15)"/><g style="pointer-events: none;" class="djs-drag-group" transform="translate(24, 42)"/><g style="pointer-events: none;" class="djs-drag-group" transform="translate(-4, 31)"/><g style="pointer-events: none;" class="djs-drag-group" transform="translate(-1, 27)"/><g style="pointer-events: none;" class="djs-drag-group" transform="translate(-120, -8)"/><g style="pointer-events: none;" class="djs-drag-group" transform="translate(0)"/><g style="pointer-events: none;" class="djs-drag-group" transform="translate(6)"/><g style="pointer-events: none;" class="djs-drag-group" transform="translate(6, -1)"/><g style="pointer-events: none;" class="djs-drag-group" transform="translate(-31, 65)"/><g style="pointer-events: none;" class="djs-drag-group" transform="translate(4, 8)"/><g style="pointer-events: none;" class="djs-drag-group" transform="translate(-15)"/><g style="pointer-events: none;" class="djs-drag-group" transform="translate(265, -180)"/><g style="pointer-events: none;" class="djs-drag-group" transform="translate(118, 185)"/><g style="pointer-events: none;" class="djs-drag-group" transform="translate(84, 9)"/><g style="pointer-events: none;" class="djs-drag-group" transform="translate(0, 13)"/><g style="pointer-events: none;" class="djs-drag-group" transform="translate(-118, 15)"/><g style="pointer-events: none;" class="djs-drag-group" transform="translate(12)"/><g style="pointer-events: none;" class="djs-drag-group" transform="translate(-12)"/><g style="pointer-events: none;" class="djs-drag-group" transform="translate(-10)"/><g style="pointer-events: none;" class="djs-drag-group" transform="translate(-58, 107)"/><g style="pointer-events: none;" class="djs-drag-group" transform="translate(62, -191)"/><g style="pointer-events: none;" class="djs-drag-group" transform="translate(-40, -68)"/><g style="pointer-events: none;" class="djs-drag-group" transform="translate(0, -25)"/><g style="pointer-events: none;" class="djs-drag-group" transform="translate(20, 203)"/><g style="pointer-events: none;" class="djs-drag-group" transform="translate(6, 27)"/><g style="pointer-events: none;" class="djs-drag-group" transform="translate(-6)"/><g style="pointer-events: none;" class="djs-drag-group" transform="translate(-179, -450)"/><g style="pointer-events: none;" class="djs-drag-group" transform="translate(7)"/><g style="pointer-events: none;" class="djs-drag-group" transform="translate(7)"/><g style="pointer-events: none;" class="djs-drag-group" transform="translate(-3, -2)"/><g style="pointer-events: none;" class="djs-drag-group" transform="translate(0, -16)"/><g style="pointer-events: none;" class="djs-drag-group" transform="translate(3)"/></svg>